<svg xmlns="http://www.w3.org/2000/svg" viewBox="0 0 600 360" fill="none"><rect width="600" height="360" rx="28" fill="#F7F1E7"/><rect x="102" y="72" width="150" height="228" rx="18" fill="#fff" stroke="#2F5D50" stroke-width="8"/><rect x="252" y="72" width="246" height="228" rx="18" fill="#ECF4EE" stroke="#2F5D50" stroke-width="8"/><path d="M252 90c-22-13-63-20-104-6v196c42-12 82-6 104 10V90Z" fill="#EBD9BB"/><path d="M252 90c35-16 76-16 122-4v198c-42-12-84-9-122 6V90Z" fill="#fff"/><path d="M154 126h62M154 158h70M154 190h58M294 126h122M294 158h142M294 190h104M294 222h132" stroke="#2F5D50" stroke-width="8" stroke-linecap="round"/><circle cx="438" cy="258" r="32" fill="#C79A53" opacity=".75"/><path d="M425 258l11 11 20-24" stroke="#fff" stroke-width="8" stroke-linecap="round" stroke-linejoin="round"/></svg>