<svg xmlns="http://www.w3.org/2000/svg" viewBox="0 0 600 360" fill="none"><rect width="600" height="360" rx="28" fill="#F7F1E7"/><rect x="72" y="78" width="456" height="228" rx="24" fill="#fff" stroke="#2F5D50" stroke-width="8"/><rect x="104" y="110" width="120" height="164" rx="18" fill="#E8F1EB"/><rect x="240" y="110" width="120" height="164" rx="18" fill="#F4E5C8"/><rect x="376" y="110" width="120" height="164" rx="18" fill="#E8F1EB"/><circle cx="164" cy="156" r="22" fill="#2F5D50" opacity=".2"/><path d="M120 240l32-36 28 24 26-32 34 44" stroke="#2F5D50" stroke-width="8" stroke-linecap="round" stroke-linejoin="round"/><circle cx="300" cy="154" r="24" fill="#C79A53" opacity=".45"/><path d="M258 236l34-32 22 18 28-30 24 44" stroke="#2F5D50" stroke-width="8" stroke-linecap="round" stroke-linejoin="round"/><circle cx="434" cy="154" r="22" fill="#2F5D50" opacity=".2"/><path d="M392 240l34-38 26 20 20-26 32 44" stroke="#2F5D50" stroke-width="8" stroke-linecap="round" stroke-linejoin="round"/></svg>