<svg xmlns="http://www.w3.org/2000/svg" viewBox="0 0 600 360" fill="none"><rect width="600" height="360" rx="28" fill="#F7F1E7"/><circle cx="114" cy="86" r="46" fill="#EBD9BB"/><rect x="56" y="200" width="488" height="92" rx="28" fill="#E7EFE8"/><path d="M170 82c14-20 42-36 74-18 22 12 31 33 28 58-4 31-29 49-57 56-26 6-59 1-72-22-15-28 2-53 27-74Z" fill="#4A7A6E" opacity=".18"/><path d="M206 95c26-44 90-47 122 0 24 35 16 78-2 115-17 34-49 61-89 60-30 0-59-14-71-42-13-30-3-63 18-89 8-10 15-21 22-31Z" fill="#2F5D50"/><path d="M264 74c-13 45-11 120 24 183" stroke="#ECF4EE" stroke-width="8" stroke-linecap="round"/><path d="M242 129c27-1 45 13 53 38" stroke="#ECF4EE" stroke-width="6" stroke-linecap="round"/><path d="M218 179c37 1 59 16 70 50" stroke="#ECF4EE" stroke-width="6" stroke-linecap="round"/><path d="M385 110h30l7 32 17 97a20 20 0 0 1-20 24h-85a20 20 0 0 1-20-24l17-97 7-32h30" stroke="#2F5D50" stroke-width="8"/><path d="M370 110V78h60v32" stroke="#2F5D50" stroke-width="8"/><path d="M343 175c22 6 34 24 49 24 15 0 29-18 50-24 20-6 34 5 34 29 0 37-37 55-84 55-47 0-84-18-84-55 0-24 15-35 35-29Z" fill="#C79A53" opacity=".7"/><rect x="64" y="219" width="124" height="54" rx="18" fill="#fff"/><rect x="204" y="219" width="124" height="54" rx="18" fill="#fff"/><rect x="344" y="219" width="124" height="54" rx="18" fill="#fff"/><path d="M100 249h52" stroke="#2F5D50" stroke-width="8" stroke-linecap="round"/><path d="M239 249h54" stroke="#2F5D50" stroke-width="8" stroke-linecap="round"/><path d="M376 249h58" stroke="#2F5D50" stroke-width="8" stroke-linecap="round"/></svg>