<svg xmlns="http://www.w3.org/2000/svg" viewBox="0 0 600 360" fill="none"><rect width="600" height="360" rx="28" fill="#F7F1E7"/><circle cx="299" cy="180" r="86" fill="#E8F1EB" stroke="#2F5D50" stroke-width="10"/><path d="M284 120c24-26 67-24 89 1 18 21 20 50 13 77-8 29-25 59-54 73-23 11-55 6-70-14-16-22-9-51 1-76 4-11 11-20 21-29Z" fill="#2F5D50"/><path d="M328 116c-8 41-16 85-7 133" stroke="#ECF4EE" stroke-width="8" stroke-linecap="round"/><path d="M283 163c25 1 39 12 46 30" stroke="#ECF4EE" stroke-width="6" stroke-linecap="round"/><g stroke="#4A7A6E" stroke-width="4" opacity=".8"><path d="M299 94 162 78"/><path d="M299 94 430 63"/><path d="M299 266 166 298"/><path d="M299 266 448 285"/><path d="M385 180h123"/><path d="M213 180H87"/></g><g fill="#fff" stroke="#2F5D50" stroke-width="6"><circle cx="145" cy="76" r="28"/><circle cx="455" cy="58" r="28"/><circle cx="150" cy="302" r="28"/><circle cx="467" cy="287" r="28"/><circle cx="70" cy="180" r="28"/><circle cx="530" cy="180" r="28"/></g><g fill="#C79A53"><circle cx="145" cy="76" r="10"/><circle cx="455" cy="58" r="10"/><circle cx="150" cy="302" r="10"/><circle cx="467" cy="287" r="10"/><circle cx="70" cy="180" r="10"/><circle cx="530" cy="180" r="10"/></g></svg>