<svg xmlns="http://www.w3.org/2000/svg" viewBox="0 0 600 360" fill="none"><rect width="600" height="360" rx="28" fill="#F7F1E7"/><rect x="72" y="84" width="300" height="192" rx="28" fill="#fff" stroke="#2F5D50" stroke-width="8"/><rect x="96" y="110" width="252" height="144" rx="18" fill="#E8F1EB"/><path d="M160 168h124" stroke="#2F5D50" stroke-width="8" stroke-linecap="round"/><path d="M142 204h92" stroke="#C79A53" stroke-width="8" stroke-linecap="round"/><path d="M255 204h48" stroke="#2F5D50" stroke-width="8" stroke-linecap="round"/><circle cx="468" cy="126" r="44" fill="#2F5D50"/><circle cx="468" cy="126" r="23" fill="#ECF4EE"/><circle cx="468" cy="126" r="6" fill="#C79A53"/><path d="M468 82V56M510 126h26M468 170v26M426 126h-26M497 97l19-19M439 97l-19-19M497 155l19 19M439 155l-19 19" stroke="#2F5D50" stroke-width="8" stroke-linecap="round"/><rect x="398" y="220" width="140" height="24" rx="12" fill="#fff" stroke="#2F5D50" stroke-width="6"/><rect x="398" y="258" width="110" height="24" rx="12" fill="#fff" stroke="#2F5D50" stroke-width="6"/></svg>